<svg width="318" height="37" viewBox="0 0 318 37" fill="none" xmlns="http://www.w3.org/2000/svg">
<path d="M18.844 11.21V13.962L0.397 20.24V17.617L18.844 11.21ZM0.397 19.466L18.844 25.744V28.41L0.397 22.046V19.466ZM2.719 18.477V21.229H1.558V18.477H2.719ZM27.3113 34V11.038H31.4393V34H27.3113ZM23.7853 14.306V11.038H31.4393V14.306H23.7853ZM28.4723 7.34C27.555 7.34 26.867 7.09633 26.4083 6.609C25.9783 6.12167 25.7633 5.50533 25.7633 4.76C25.7633 4.01467 25.9783 3.39833 26.4083 2.911C26.867 2.42367 27.555 2.18 28.4723 2.18C29.3896 2.18 30.0633 2.42367 30.4933 2.911C30.952 3.39833 31.1813 4.01467 31.1813 4.76C31.1813 5.50533 30.952 6.12167 30.4933 6.609C30.0633 7.09633 29.3896 7.34 28.4723 7.34ZM49.9988 34.774C47.9922 34.774 46.2292 34.43 44.7098 33.742C43.1905 33.054 41.9005 32.151 40.8398 31.033C39.8078 29.8863 39.0195 28.6107 38.4748 27.206C37.9588 25.8013 37.7008 24.368 37.7008 22.906V22.132C37.7008 20.67 37.9732 19.2367 38.5178 17.832C39.0625 16.3987 39.8652 15.123 40.9258 14.005C41.9865 12.8583 43.2765 11.9553 44.7958 11.296C46.3152 10.608 48.0495 10.264 49.9988 10.264C51.9482 10.264 53.6825 10.608 55.2018 11.296C56.7212 11.9553 58.0112 12.8583 59.0718 14.005C60.1325 15.123 60.9352 16.3987 61.4798 17.832C62.0245 19.2367 62.2968 20.67 62.2968 22.132V22.906C62.2968 24.368 62.0245 25.8013 61.4798 27.206C60.9638 28.6107 60.1755 29.8863 59.1148 31.033C58.0828 32.151 56.8072 33.054 55.2878 33.742C53.7685 34.43 52.0055 34.774 49.9988 34.774ZM49.9988 31.076C51.7188 31.076 53.1808 30.7033 54.3848 29.958C55.6175 29.184 56.5492 28.152 57.1798 26.862C57.8392 25.572 58.1688 24.1243 58.1688 22.519C58.1688 20.885 57.8392 19.423 57.1798 18.133C56.5205 16.843 55.5745 15.8253 54.3418 15.08C53.1378 14.3347 51.6902 13.962 49.9988 13.962C48.3362 13.962 46.8885 14.3347 45.6558 15.08C44.4232 15.8253 43.4772 16.843 42.8178 18.133C42.1585 19.423 41.8288 20.885 41.8288 22.519C41.8288 24.1243 42.1442 25.572 42.7748 26.862C43.4342 28.152 44.3658 29.184 45.5698 29.958C46.8025 30.7033 48.2788 31.076 49.9988 31.076ZM68.4794 34V11.038H71.7474V20.498H71.5754C71.5754 17.144 72.3064 14.693 73.7684 13.145C75.2591 11.5683 77.4808 10.78 80.4334 10.78H81.2074V14.478H79.7454C77.4521 14.478 75.6891 15.0943 74.4564 16.327C73.2238 17.531 72.6074 19.2797 72.6074 21.573V34H68.4794ZM95.6252 34.774C93.6185 34.774 91.8842 34.43 90.4222 33.742C88.9602 33.054 87.7705 32.151 86.8532 31.033C85.9359 29.8863 85.2479 28.6107 84.7892 27.206C84.3592 25.8013 84.1442 24.368 84.1442 22.906V22.132C84.1442 20.6413 84.3592 19.1937 84.7892 17.789C85.2479 16.3843 85.9359 15.123 86.8532 14.005C87.7705 12.8583 88.9315 11.9553 90.3362 11.296C91.7695 10.608 93.4465 10.264 95.3672 10.264C97.8612 10.264 99.9109 10.8087 101.516 11.898C103.15 12.9587 104.354 14.3347 105.128 16.026C105.931 17.7173 106.332 19.5233 106.332 21.444V23.293H85.9502V20.197H103.322L102.376 21.874C102.376 20.24 102.118 18.8353 101.602 17.66C101.086 16.456 100.312 15.5243 99.2802 14.865C98.2482 14.2057 96.9439 13.876 95.3672 13.876C93.7332 13.876 92.3715 14.2487 91.2822 14.994C90.2215 15.7393 89.4189 16.757 88.8742 18.047C88.3582 19.337 88.1002 20.8277 88.1002 22.519C88.1002 24.153 88.3582 25.6293 88.8742 26.948C89.4189 28.238 90.2502 29.27 91.3682 30.044C92.4862 30.7893 93.9052 31.162 95.6252 31.162C97.4312 31.162 98.8932 30.7607 100.011 29.958C101.158 29.1553 101.846 28.2237 102.075 27.163H105.945C105.63 28.7397 104.999 30.1013 104.053 31.248C103.107 32.3947 101.918 33.269 100.484 33.871C99.0509 34.473 97.4312 34.774 95.6252 34.774ZM112.193 34V11.038H115.461V20.885H114.945C114.945 18.6203 115.246 16.714 115.848 15.166C116.479 13.5893 117.425 12.3997 118.686 11.597C119.948 10.7657 121.539 10.35 123.459 10.35H123.631C126.527 10.35 128.662 11.253 130.038 13.059C131.443 14.865 132.145 17.4737 132.145 20.885V34H128.017V20.025C128.017 18.2477 127.516 16.8287 126.512 15.768C125.509 14.6787 124.133 14.134 122.384 14.134C120.578 14.134 119.116 14.693 117.998 15.811C116.88 16.929 116.321 18.4197 116.321 20.283V34H112.193ZM153.587 34V27.12H152.899V19.165C152.899 17.5883 152.484 16.3987 151.652 15.596C150.85 14.7933 149.66 14.392 148.083 14.392C147.195 14.392 146.277 14.4063 145.331 14.435C144.385 14.4637 143.482 14.4923 142.622 14.521C141.762 14.5497 141.017 14.5927 140.386 14.65V11.038C141.017 10.9807 141.676 10.9377 142.364 10.909C143.081 10.8517 143.812 10.823 144.557 10.823C145.303 10.7943 146.019 10.78 146.707 10.78C149.058 10.78 150.979 11.0667 152.469 11.64C153.96 12.1847 155.064 13.0877 155.78 14.349C156.497 15.6103 156.855 17.316 156.855 19.466V34H153.587ZM146.062 34.602C144.342 34.602 142.852 34.3153 141.59 33.742C140.358 33.14 139.397 32.28 138.709 31.162C138.05 30.044 137.72 28.6967 137.72 27.12C137.72 25.486 138.079 24.1243 138.795 23.035C139.541 21.9457 140.616 21.1287 142.02 20.584C143.425 20.0107 145.116 19.724 147.094 19.724H153.329V22.82H146.922C145.26 22.82 143.984 23.2213 143.095 24.024C142.207 24.8267 141.762 25.8587 141.762 27.12C141.762 28.3813 142.207 29.399 143.095 30.173C143.984 30.947 145.26 31.334 146.922 31.334C147.897 31.334 148.829 31.162 149.717 30.818C150.606 30.4453 151.337 29.8433 151.91 29.012C152.512 28.152 152.842 26.9767 152.899 25.486L154.017 27.12C153.874 28.754 153.473 30.13 152.813 31.248C152.183 32.3373 151.294 33.1687 150.147 33.742C149.029 34.3153 147.668 34.602 146.062 34.602ZM282.782 36.58L291.554 0.459999H294.564L285.792 36.58H282.782ZM299.003 28.453V25.701L317.45 19.423V22.046L299.003 28.453ZM317.45 20.197L299.003 13.919V11.253L317.45 17.617V20.197ZM315.128 21.186V18.434H316.289V21.186H315.128Z" fill="#F4F5F7"/>
<path d="M164.647 34V11.253H167.227V20.799H166.711C166.711 18.6777 167.026 16.8573 167.657 15.338C168.287 13.8187 169.233 12.6433 170.495 11.812C171.756 10.9807 173.347 10.565 175.268 10.565H175.397C178.263 10.565 180.399 11.468 181.804 13.274C183.208 15.0513 183.911 17.5597 183.911 20.799V34H180.729V20.111C180.729 18.133 180.184 16.542 179.095 15.338C178.005 14.134 176.486 13.532 174.537 13.532C172.53 13.532 170.91 14.1627 169.678 15.424C168.474 16.6567 167.872 18.2907 167.872 20.326V34H164.647ZM200.198 34.258C198.621 34.258 197.259 34.0287 196.113 33.57C194.966 33.1113 194.077 32.3373 193.447 31.248C192.816 30.13 192.501 28.6393 192.501 26.776V4.072H195.597V27.249C195.597 28.5677 195.955 29.5853 196.672 30.302C197.388 30.99 198.406 31.334 199.725 31.334H203.81V34.258H200.198ZM188.416 13.704V11.253H203.81V13.704H188.416ZM217.053 34.645C214.129 34.645 211.879 34.0143 210.302 32.753C208.726 31.463 207.923 29.743 207.894 27.593H210.904C210.962 28.6823 211.449 29.6713 212.366 30.56C213.312 31.4487 214.875 31.893 217.053 31.893C219.089 31.893 220.608 31.4773 221.611 30.646C222.643 29.786 223.159 28.754 223.159 27.55C223.159 26.432 222.729 25.572 221.869 24.97C221.038 24.3393 219.82 23.938 218.214 23.766L215.634 23.508C213.57 23.2787 211.893 22.648 210.603 21.616C209.342 20.5553 208.711 19.1077 208.711 17.273C208.711 15.9257 209.055 14.7503 209.743 13.747C210.431 12.7437 211.392 11.9697 212.624 11.425C213.886 10.8517 215.362 10.565 217.053 10.565C219.49 10.565 221.468 11.1383 222.987 12.285C224.535 13.4317 225.324 15.0657 225.352 17.187H222.342C222.314 16.0977 221.855 15.1803 220.966 14.435C220.078 13.6897 218.773 13.317 217.053 13.317C215.276 13.317 213.943 13.704 213.054 14.478C212.194 15.252 211.764 16.198 211.764 17.316C211.764 18.262 212.094 19.0503 212.753 19.681C213.413 20.283 214.445 20.6557 215.849 20.799L218.429 21.057C220.723 21.315 222.586 21.9743 224.019 23.035C225.481 24.0957 226.212 25.615 226.212 27.593C226.212 28.9403 225.825 30.1587 225.051 31.248C224.306 32.3087 223.245 33.14 221.869 33.742C220.493 34.344 218.888 34.645 217.053 34.645ZM242.823 34.731C240.874 34.731 239.154 34.4013 237.663 33.742C236.201 33.054 234.954 32.151 233.922 31.033C232.919 29.8863 232.145 28.6107 231.6 27.206C231.084 25.8013 230.826 24.368 230.826 22.906V22.304C230.826 20.842 231.098 19.4087 231.643 18.004C232.188 16.5707 232.976 15.295 234.008 14.177C235.04 13.059 236.287 12.1703 237.749 11.511C239.24 10.823 240.931 10.479 242.823 10.479C244.744 10.479 246.435 10.823 247.897 11.511C249.388 12.1703 250.649 13.059 251.681 14.177C252.713 15.295 253.487 16.5707 254.003 18.004C254.548 19.4087 254.82 20.842 254.82 22.304V22.906C254.82 24.368 254.562 25.8013 254.046 27.206C253.53 28.6107 252.756 29.8863 251.724 31.033C250.721 32.151 249.474 33.054 247.983 33.742C246.492 34.4013 244.772 34.731 242.823 34.731ZM242.823 31.85C244.715 31.85 246.306 31.4343 247.596 30.603C248.915 29.743 249.918 28.625 250.606 27.249C251.294 25.8443 251.638 24.2963 251.638 22.605C251.638 20.885 251.28 19.337 250.563 17.961C249.875 16.5563 248.872 15.4527 247.553 14.65C246.234 13.8187 244.658 13.403 242.823 13.403C241.017 13.403 239.455 13.8187 238.136 14.65C236.817 15.4527 235.8 16.5563 235.083 17.961C234.395 19.337 234.051 20.885 234.051 22.605C234.051 24.2963 234.395 25.8443 235.083 27.249C235.771 28.625 236.76 29.743 238.05 30.603C239.369 31.4343 240.96 31.85 242.823 31.85ZM275.243 34V27.163H274.727V19.079C274.727 17.3877 274.282 16.0977 273.394 15.209C272.505 14.2917 271.129 13.833 269.266 13.833C268.406 13.833 267.531 13.8473 266.643 13.876C265.783 13.9047 264.951 13.9477 264.149 14.005C263.375 14.0337 262.687 14.0767 262.085 14.134V11.296C262.715 11.2387 263.36 11.1813 264.02 11.124C264.679 11.0667 265.353 11.038 266.041 11.038C266.757 11.0093 267.445 10.995 268.105 10.995C270.427 10.995 272.29 11.2817 273.695 11.855C275.128 12.4283 276.174 13.3313 276.834 14.564C277.493 15.768 277.823 17.3733 277.823 19.38V34H275.243ZM267.546 34.602C265.94 34.602 264.521 34.3153 263.289 33.742C262.056 33.1687 261.096 32.3373 260.408 31.248C259.748 30.1587 259.419 28.84 259.419 27.292C259.419 25.7727 259.763 24.4827 260.451 23.422C261.167 22.3613 262.185 21.5587 263.504 21.014C264.851 20.4407 266.471 20.154 268.363 20.154H275.028V22.605H268.148C266.342 22.605 264.951 23.0493 263.977 23.938C263.031 24.798 262.558 25.9303 262.558 27.335C262.558 28.7683 263.059 29.915 264.063 30.775C265.066 31.6063 266.428 32.022 268.148 32.022C269.208 32.022 270.226 31.8357 271.201 31.463C272.175 31.0617 272.992 30.4023 273.652 29.485C274.311 28.539 274.669 27.249 274.727 25.615L275.673 26.948C275.558 28.6393 275.157 30.0583 274.469 31.205C273.781 32.323 272.849 33.1687 271.674 33.742C270.498 34.3153 269.122 34.602 267.546 34.602Z" fill="#F13024"/>
</svg>
